<?xml version="1.0" encoding="UTF-8" standalone="no"?><!DOCTYPE svg PUBLIC "-//W3C//DTD SVG 1.1//EN" "http://www.w3.org/Graphics/SVG/1.1/DTD/svg11.dtd"><svg width="100%" height="100%" viewBox="0 0 2500 1250" version="1.1" xmlns="http://www.w3.org/2000/svg" xmlns:xlink="http://www.w3.org/1999/xlink" xml:space="preserve" xmlns:serif="http://www.serif.com/" style="fill-rule:evenodd;clip-rule:evenodd;stroke-linejoin:round;stroke-miterlimit:2;"><clipPath id="_clip1"><rect id="kafkajs.svg" x="1704.17" y="166.667" width="733.333" height="916.667"/></clipPath><g clip-path="url(#_clip1)"><g><path d="M2258.75,869.444c119.778,-81.888 178.75,-249.333 132,-421.055c-44.917,-159.5 -236.5,-288.139 -458.028,-226.417c-91.666,25.972 -172.944,64.167 -210.528,118.556c35.445,-64.472 137.195,-136.584 250.556,-159.5c247.5,-49.806 418,95.028 455.278,262.472c34.157,162.772 -32.709,331.022 -169.278,425.944Z" style="fill:url(#_Linear2);"/><path d="M2258.75,869.444l-2.139,0c-14.364,9.219 -29.375,17.389 -44.917,24.445c-30.181,12.815 -58.132,30.349 -82.805,51.944c-24.439,14.95 -43.33,37.491 -53.778,64.167c-2.049,5.577 -3.084,11.475 -3.055,17.417c-0.571,5.446 -0.052,10.951 1.527,16.194c1.009,3.728 2.445,7.333 4.278,10.695c2.261,3.972 5.164,7.608 8.556,10.694l3.666,2.75c5.195,3.422 11,5.806 17.111,7.028l6.112,-0c4.766,0.519 9.594,0.519 14.361,-0c-4.889,-0 -16.195,2.75 -25.973,3.972l-16.194,2.139c-6.868,1.249 -13.808,2.065 -20.778,2.444c-224.583,21.695 -345.583,-207.777 -194.639,-336.111l4.889,-3.972c22,-17.111 65.084,-42.778 95.028,-66l8.25,-6.722l15.889,-14.056c12.945,-12.286 24.428,-26.025 34.222,-40.944c1.833,-3.056 3.361,-6.111 5.195,-8.861c1.833,-2.75 3.666,-6.723 5.194,-10.084c3.015,-6.676 5.667,-13.51 7.944,-20.472c3.825,-13.938 5.778,-28.324 5.806,-42.778c0.545,-35.602 -8.085,-70.753 -25.056,-102.055c-1.436,-3.021 -3.176,-5.888 -5.194,-8.556c-42.851,-60.075 -115.226,-92.216 -188.528,-83.722l-18.028,0c-75.777,9.167 -98.694,42.472 -105.416,33c-0.825,-1.739 -0.825,-3.761 -0,-5.5c-0.126,-0.707 -0.126,-1.431 -0,-2.139c2.121,-7.951 5.752,-15.42 10.694,-22l0,-1.528c23.024,-31.386 51.483,-58.396 84.028,-79.75c38.523,-26.291 81.031,-46.203 125.889,-58.972c114.58,-33.509 238.566,-9.578 332.444,64.167c4.584,3.361 9.167,6.722 13.445,10.389c47.166,39.321 83.554,90.011 105.722,147.277c3.361,8.556 5.806,16.806 8.25,25.362c46.75,171.722 -12.222,339.166 -132,420.138Z" style="fill:url(#_Linear3);"/><circle cx="1856.33" cy="304.472" r="33.611" style="fill:url(#_Linear4);"/><circle cx="1889.94" cy="777.472" r="33.611" style="fill:url(#_Linear5);"/><circle cx="2052.81" cy="408.667" r="33.611" style="fill:url(#_Linear6);"/><circle cx="2059.83" cy="630.5" r="33.611" style="fill:url(#_Linear7);"/><circle cx="1868.56" cy="523.25" r="84.028" style="fill:url(#_Linear8);"/><path d="M2162.5,1070.81c-11.581,3.333 -23.447,5.583 -35.444,6.722l-21.389,-0c-6.104,-1.218 -11.914,-3.604 -17.111,-7.028l-3.667,-2.75c-3.393,-3.096 -6.28,-6.705 -8.556,-10.694c-1.842,-3.384 -3.278,-6.974 -4.277,-10.695c-1.735,-5.845 -2.153,-12.002 -1.223,-18.028c0,-5.927 1.009,-11.825 3.056,-17.416c10.447,-26.676 29.339,-49.217 53.778,-64.167c-27.536,22.587 -38.072,60.201 -26.278,93.806c11.856,21.978 36.445,34.149 61.111,30.25Z" style="fill:url(#_Linear9);"/></g></g><clipPath id="_clip10"><rect id="plus-solid.svg" x="1163.82" y="403.313" width="387.951" height="443.373"/></clipPath><g clip-path="url(#_clip10)"><path d="M1524.06,583.434l-124.698,-0l-0,-124.699c-0,-15.301 -12.41,-27.711 -27.711,-27.711l-27.711,0c-15.301,0 -27.711,12.41 -27.711,27.711l0,124.699l-124.698,-0c-15.302,-0 -27.711,12.409 -27.711,27.711l-0,27.71c-0,15.302 12.409,27.711 27.711,27.711l124.698,0l0,124.699c0,15.301 12.41,27.711 27.711,27.711l27.711,-0c15.301,-0 27.711,-12.41 27.711,-27.711l-0,-124.699l124.698,0c15.302,0 27.711,-12.409 27.711,-27.711l0,-27.71c0,-15.302 -12.409,-27.711 -27.711,-27.711Z" style="fill:url(#_Linear11);fill-rule:nonzero;"/></g><g id="layer1"><path id="path818" d="M612.45,181.873c-6.49,0 -12.515,1.391 -18.078,3.245c11.82,7.88 18.309,18.309 21.554,30.129c0.232,1.622 0.695,2.781 0.927,4.403c0.233,1.391 0.464,2.781 0.464,4.172c0.927,20.395 -5.331,22.944 -9.734,34.995c-6.721,15.528 -4.867,32.215 3.244,45.657c0.696,1.622 1.623,3.476 2.781,5.098c-8.806,-58.634 40.095,-67.441 49.133,-85.75c0.695,-15.992 -12.515,-26.652 -22.944,-34.069c-9.965,-6.025 -19.004,-7.88 -27.347,-7.88Zm73.699,13.211c-0.928,5.33 -0.232,3.94 -0.463,6.721c-0.232,1.854 -0.232,4.171 -0.463,6.025c-0.464,1.854 -0.928,3.709 -1.623,5.563c-0.463,1.854 -1.159,3.708 -1.854,5.562c-0.927,1.854 -1.622,3.476 -2.549,5.33c-0.695,0.928 -1.159,1.854 -1.854,2.781c-0.463,0.696 -0.928,1.391 -1.391,2.086c-1.159,1.623 -2.317,3.245 -3.476,4.635c-1.391,1.391 -2.55,3.013 -4.172,4.172l0,0.232c-1.39,1.159 -2.781,2.549 -4.403,3.708c-4.867,3.708 -10.429,6.489 -15.528,9.966c-1.622,1.159 -3.245,2.086 -4.635,3.476c-1.623,1.159 -3.013,2.318 -4.404,3.708c-1.622,1.391 -2.781,2.782 -4.171,4.404c-1.159,1.39 -2.55,3.013 -3.477,4.635c-1.159,1.622 -2.317,3.245 -3.244,4.867c-0.928,1.854 -1.623,3.476 -2.55,5.33c-0.695,1.854 -1.39,3.477 -1.854,5.331c-0.695,2.086 -1.159,3.94 -1.622,5.794c-0.232,0.927 -0.232,2.086 -0.463,3.013c-0.233,0.927 -0.233,1.854 -0.463,2.781c-0,1.854 -0.232,3.94 -0.232,5.794c-0,1.39 -0,2.781 0.232,4.171c-0,1.854 0.232,3.708 0.695,5.794c0.232,1.854 0.695,3.708 1.159,5.563c0.695,1.854 1.159,3.708 1.854,5.562c0.463,1.159 1.159,2.317 1.622,3.244l-53.304,-20.626c-9.039,-2.55 -17.846,-4.867 -26.884,-6.953c-4.867,-1.159 -9.734,-2.317 -14.601,-3.476c-13.906,-2.781 -28.043,-4.867 -42.18,-6.258c-0.463,0 -0.695,-0.232 -1.159,-0.232c-13.906,-1.39 -27.579,-2.086 -41.485,-2.086c-10.197,0 -20.395,0.464 -30.36,1.159c-14.138,0.928 -28.275,2.781 -42.412,5.099c-3.476,0.463 -6.953,1.159 -10.429,1.854c-7.185,1.39 -14.137,3.013 -20.858,4.635c-3.477,0.928 -6.953,1.854 -10.43,2.781c-3.476,1.391 -6.721,3.013 -9.965,4.404c-2.55,1.158 -5.099,2.317 -7.648,3.476c-0.463,0.232 -0.928,0.232 -1.159,0.463c-2.318,1.159 -4.404,2.086 -6.489,3.245c-0.696,0.232 -1.159,0.463 -1.623,0.695c-2.549,1.159 -5.098,2.549 -7.184,3.708c-1.623,0.695 -3.245,1.623 -4.635,2.318c-0.696,0.463 -1.623,0.927 -2.086,1.159c-2.086,1.158 -4.172,2.317 -6.026,3.476c-2.086,1.159 -3.94,2.318 -5.562,3.476c-1.622,1.159 -3.245,2.086 -4.635,3.245c-0.233,0.232 -0.463,0.232 -0.696,0.463c-1.39,0.927 -3.012,2.086 -4.403,3.245c0,-0 -0.232,0.232 -0.463,0.463c-1.159,0.927 -2.318,1.854 -3.477,2.781c-0.463,0.232 -0.927,0.695 -1.39,0.927c-1.159,0.928 -2.318,2.086 -3.476,3.013c-0.233,0.463 -0.696,0.696 -0.928,0.928c-1.39,1.39 -2.781,2.549 -4.171,3.94c-0.233,-0 -0.233,0.232 -0.464,0.463c-1.39,1.158 -2.781,2.549 -4.171,3.94c-0.232,0.232 -0.232,0.463 -0.463,0.463c-1.159,1.159 -2.318,2.317 -3.477,3.708c-0.463,0.463 -1.159,0.927 -1.622,1.39c-1.159,1.391 -2.549,2.782 -3.94,4.172c-0.232,0.463 -0.695,0.695 -0.927,1.159c-1.854,1.854 -3.477,3.708 -5.331,5.562c-0.232,0.232 -0.463,0.463 -0.695,0.695c-3.708,3.94 -7.648,7.88 -11.82,11.357c-4.172,3.708 -8.575,7.184 -12.978,10.197c-4.636,3.245 -9.039,6.026 -13.906,8.807c-4.635,2.549 -9.502,4.867 -14.601,6.953c-4.867,2.085 -9.965,3.939 -15.064,5.562c-9.734,2.085 -19.7,6.025 -28.275,6.721c-1.854,-0 -3.939,0.463 -5.793,0.695c-2.086,0.463 -3.94,0.927 -5.794,1.391c-1.854,0.695 -3.709,1.39 -5.563,2.085c-1.854,0.696 -3.708,1.623 -5.562,2.55c-1.622,1.158 -3.476,2.086 -5.099,3.244c-1.622,1.159 -3.244,2.55 -4.635,3.94c-1.622,1.159 -3.244,2.781 -4.635,4.172c-1.39,1.622 -2.781,3.013 -3.94,4.635c-1.159,1.854 -2.549,3.476 -3.476,5.331c-1.159,1.622 -2.318,3.476 -3.245,5.33c-0.927,2.086 -1.854,3.94 -2.549,6.026c-0.695,1.854 -1.391,3.94 -2.086,6.025c-0.463,1.854 -0.927,3.709 -1.159,5.562c0,0.233 -0.232,0.464 -0.232,0.696c-0.463,2.086 -0.463,4.867 -0.695,6.258c-0.232,1.622 -0.463,3.012 -0.463,4.635c-0,0.927 -0,2.085 0.232,3.012c0.232,1.623 0.463,3.013 0.927,4.404c0.463,1.39 0.928,2.781 1.622,4.172l0,0.232c0.696,1.39 1.623,2.781 2.55,4.171c0.927,1.391 1.854,2.781 3.013,4.172c1.158,1.159 2.549,2.549 3.94,3.708c1.39,1.391 2.781,2.549 4.403,3.708c5.562,4.867 6.953,6.49 14.137,10.198c1.159,0.695 2.318,1.158 3.708,1.854c0.233,-0 0.464,0.232 0.696,0.232c-0,0.463 -0,0.695 0.232,1.159c0.232,1.854 0.695,3.708 1.159,5.562c0.463,2.086 1.159,3.94 1.854,5.562c0.695,1.391 1.159,2.781 1.854,4.172c0.232,0.463 0.463,0.927 0.695,1.159c0.928,1.854 1.854,3.476 2.781,5.098c1.159,1.622 2.318,3.245 3.477,4.867c1.158,1.391 2.549,3.013 3.939,4.404c1.391,1.39 2.782,2.549 4.404,3.939c-0,0 0.232,0.233 0.463,0.233c1.391,1.159 2.781,2.317 4.172,3.244c1.622,1.159 3.244,2.086 5.098,3.013c1.623,0.928 3.477,1.854 5.331,2.55c1.39,0.695 3.013,1.158 4.635,1.622c0.232,0.232 0.463,0.232 0.927,0.463c0.928,0.233 2.086,0.463 3.013,0.695c-0.695,12.515 -0.927,24.335 0.928,28.507c2.085,4.635 12.283,-9.502 22.48,-25.725c-1.39,15.991 -2.317,34.763 0,40.326c2.55,5.793 16.455,-12.284 28.507,-32.215c164.316,-38.008 314.264,75.553 330.024,235.93c-3.013,-25.03 -33.837,-38.935 -47.974,-35.459c-6.953,17.15 -18.773,39.167 -37.777,52.841c1.623,-15.296 0.928,-31.055 -2.317,-46.352c-5.099,21.322 -15.065,41.254 -28.739,58.404c-22.017,1.622 -44.034,-9.039 -55.622,-25.03c-0.927,-0.696 -1.158,-2.086 -1.854,-3.013c-0.695,-1.623 -1.39,-3.245 -1.854,-4.867c-0.695,-1.622 -1.159,-3.245 -1.39,-4.867c-0.232,-1.622 -0.232,-3.245 -0.232,-5.099l-0,-3.476c0.232,-1.622 0.695,-3.245 1.158,-4.867c0.463,-1.622 0.928,-3.245 1.623,-4.867c0.927,-1.622 1.622,-3.245 2.781,-4.867c3.94,-11.124 3.94,-20.163 -3.245,-25.493c-1.39,-0.928 -2.781,-1.623 -4.403,-2.318c-0.928,-0.232 -2.086,-0.695 -3.013,-0.927c-0.695,-0.232 -1.159,-0.464 -1.854,-0.696c-1.623,-0.463 -3.245,-0.927 -4.867,-1.158c-1.622,-0.464 -3.245,-0.696 -4.867,-0.696c-1.622,-0.232 -3.477,-0.463 -5.099,-0.463c-1.159,0 -2.317,0.232 -3.476,0.232c-1.854,0 -3.477,0.233 -5.099,0.695c-1.622,0.233 -3.244,0.464 -4.867,0.928c-1.622,0.463 -3.244,0.927 -4.867,1.622c-1.622,0.696 -3.013,1.391 -4.635,2.086c-1.39,0.695 -2.781,1.622 -4.403,2.318c-54,35.227 -21.786,117.733 15.064,141.604c-13.906,2.549 -28.043,5.562 -31.983,8.575c-0.232,0.232 -0.463,0.463 -0.463,0.463c9.966,6.026 20.395,11.125 31.288,15.528c14.832,4.867 30.592,9.271 37.545,11.125l-0,0.232c19.235,3.94 38.703,5.33 58.403,4.171c102.669,-7.184 186.797,-85.287 202.093,-188.188c0.463,2.086 0.928,3.94 1.391,6.026c0.695,4.172 1.622,8.575 2.086,12.978l-0,0.233c0.463,2.086 0.695,4.172 0.927,6.026l0,0.927c0.232,2.086 0.463,4.172 0.463,6.026c0.232,2.549 0.463,5.098 0.463,7.648l0,3.708c0,1.159 0.232,2.549 0.232,3.708c0,1.391 -0.232,2.781 -0.232,4.172l0,3.244c0,1.623 -0.232,3.013 -0.232,4.636c-0,0.927 -0,1.854 -0.232,3.012c-0,1.623 -0.232,3.245 -0.232,5.099c-0.233,0.695 -0.233,1.391 -0.233,2.086c-0.232,1.854 -0.463,3.476 -0.695,5.33c0,0.696 0,1.391 -0.232,2.086c-0.232,2.318 -0.695,4.404 -0.927,6.721l-0,0.465c-0.463,2.085 -0.928,4.403 -1.391,6.489l0,0.695c-0.463,2.086 -0.927,4.172 -1.39,6.258c-0,0.232 -0.232,0.695 -0.232,0.927c-0.464,2.086 -0.928,4.172 -1.623,6.258l0,0.695c-0.695,2.317 -1.39,4.403 -1.854,6.489c-0.232,0.232 -0.232,0.463 -0.232,0.463c-0.695,2.318 -1.39,4.635 -2.086,6.953c-0.927,2.317 -1.622,4.403 -2.549,6.721c-0.927,2.317 -1.622,4.635 -2.549,6.721c-0.928,2.318 -1.854,4.403 -2.781,6.721l-0.233,-0c-0.927,2.086 -1.854,4.403 -3.013,6.489c-0.232,0.695 -0.463,1.159 -0.695,1.622c-0.232,0.233 -0.232,0.464 -0.463,0.696c-15.064,30.36 -37.313,57.012 -65.124,77.871c-1.854,1.158 -3.708,2.549 -5.562,3.939c-0.464,0.464 -1.159,0.696 -1.623,1.159c-1.622,1.159 -3.244,2.318 -5.098,3.477l0.695,1.39l0.232,0c3.244,-0.463 6.489,-0.927 9.734,-1.39l0.232,-0c6.026,-0.928 12.051,-2.086 18.077,-3.245c1.622,-0.232 3.476,-0.695 5.099,-1.159c1.158,-0.232 2.085,-0.463 3.244,-0.695c1.623,-0.232 3.245,-0.695 4.867,-0.927c1.391,-0.464 2.781,-0.696 4.172,-1.159c23.176,-5.563 45.656,-13.211 67.21,-22.249c-36.85,50.291 -86.214,90.849 -143.922,117.502c26.652,-1.855 53.304,-6.258 79.029,-13.674c93.399,-27.58 171.965,-90.386 219.012,-174.978c-9.502,53.536 -30.824,104.523 -62.343,149.021c22.481,-14.833 43.107,-31.983 61.88,-51.451c51.914,-54.231 85.982,-123.063 97.57,-196.995c7.88,36.618 10.198,74.395 6.721,111.708c167.33,-233.381 13.906,-475.337 -50.291,-539.07c-0.233,-0.464 -0.464,-0.696 -0.464,-1.159c-0.232,0.232 -0.232,0.232 -0.232,0.463c0,-0.232 0,-0.232 -0.232,-0.463c-0,2.781 -0.232,5.562 -0.463,8.343c-0.695,5.331 -1.391,10.429 -2.318,15.528c-1.159,5.099 -2.549,10.197 -3.94,15.296c-1.622,4.867 -3.476,9.966 -5.562,14.833c-2.086,4.635 -4.403,9.502 -6.953,14.137c-2.549,4.403 -5.33,9.038 -8.343,13.21c-3.013,4.404 -6.257,8.575 -9.502,12.515c-3.477,4.172 -7.185,7.88 -10.893,11.588c-2.317,2.086 -4.403,3.94 -6.721,5.794c-1.854,1.622 -3.476,3.013 -5.33,4.635c-4.172,3.245 -8.343,6.258 -12.979,9.039c-4.403,2.781 -9.038,5.562 -13.673,7.88c-4.867,2.317 -9.734,4.403 -14.601,6.489c-4.867,1.854 -9.966,3.476 -15.065,4.867c-5.098,1.39 -10.429,2.549 -15.527,3.476c-5.331,0.927 -10.661,1.391 -15.76,1.854c-3.708,0.232 -7.416,0.463 -11.124,0.463c-5.331,0 -10.661,-0.463 -15.76,-0.927c-5.33,-0.463 -10.661,-1.159 -15.759,-2.318c-5.331,-0.927 -10.43,-2.317 -15.528,-3.94l-0.232,0c5.098,-0.463 10.197,-0.927 15.296,-1.854c5.33,-0.927 10.429,-2.085 15.528,-3.476c5.098,-1.391 10.197,-3.013 15.064,-4.867c5.098,-1.854 9.965,-4.172 14.601,-6.489c4.867,-2.318 9.27,-4.867 13.905,-7.648c4.403,-3.013 8.807,-6.026 12.979,-9.271c4.171,-3.244 8.111,-6.721 11.819,-10.429c3.94,-3.476 7.417,-7.416 10.893,-11.356c3.476,-4.172 6.721,-8.343 9.734,-12.515c0.463,-0.695 0.927,-1.622 1.39,-2.317c2.318,-3.709 4.635,-7.417 6.721,-11.125c2.55,-4.635 4.867,-9.27 6.953,-14.137c2.086,-4.867 3.94,-9.734 5.562,-14.833c1.623,-4.867 2.781,-9.965 3.94,-15.064c0.928,-5.33 1.854,-10.429 2.318,-15.528c0.463,-5.33 0.927,-10.661 0.927,-15.759c0,-3.709 -0.232,-7.417 -0.463,-11.125c-0.463,-5.33 -1.159,-10.429 -1.854,-15.528c-0.927,-5.33 -2.086,-10.429 -3.476,-15.528c-1.623,-4.866 -3.245,-9.965 -5.099,-14.832c-1.854,-4.867 -4.172,-9.734 -6.489,-14.369c-2.55,-4.635 -5.099,-9.27 -7.88,-13.674c-3.013,-4.403 -6.026,-8.575 -9.27,-12.747c-3.477,-3.939 -6.953,-7.879 -10.661,-11.819c-1.854,-1.854 -3.94,-3.94 -6.026,-5.794c-10.429,-8.112 -21.322,-15.76 -32.214,-22.713c-1.623,-0.927 -3.013,-1.622 -4.636,-2.317c-7.648,-4.867 -14.832,-7.417 -22.017,-9.734l-0,-0.001Z" style="fill:#e0234e;"/></g><defs><linearGradient id="_Linear2" x1="0" y1="0" x2="1" y2="0" gradientUnits="userSpaceOnUse" gradientTransform="matrix(-438.447,315.028,-315.028,-438.447,2369.93,319.443)"><stop offset="0" style="stop-color:#ffdc00;stop-opacity:1"/><stop offset="0.8" style="stop-color:#fba313;stop-opacity:1"/><stop offset="1" style="stop-color:#fba313;stop-opacity:1"/></linearGradient><linearGradient id="_Linear3" x1="0" y1="0" x2="1" y2="0" gradientUnits="userSpaceOnUse" gradientTransform="matrix(-658.471,389.575,-389.575,-658.471,2386.16,420.294)"><stop offset="0" style="stop-color:#f05eb7;stop-opacity:1"/><stop offset="0.04" style="stop-color:#f05eb7;stop-opacity:1"/><stop offset="0.8" style="stop-color:#a170cc;stop-opacity:1"/><stop offset="1" style="stop-color:#a170cc;stop-opacity:1"/></linearGradient><linearGradient id="_Linear4" x1="0" y1="0" x2="1" y2="0" gradientUnits="userSpaceOnUse" gradientTransform="matrix(-48.1835,46.6529,-46.6529,-48.1835,1882.23,279.863)"><stop offset="0" style="stop-color:#ffdc00;stop-opacity:1"/><stop offset="0.8" style="stop-color:#fba313;stop-opacity:1"/><stop offset="1" style="stop-color:#fba313;stop-opacity:1"/></linearGradient><linearGradient id="_Linear5" x1="0" y1="0" x2="1" y2="0" gradientUnits="userSpaceOnUse" gradientTransform="matrix(-35.0483,44.241,-44.241,-35.0483,1908.3,754.411)"><stop offset="0" style="stop-color:#ffdc00;stop-opacity:1"/><stop offset="0.8" style="stop-color:#fba313;stop-opacity:1"/><stop offset="1" style="stop-color:#fba313;stop-opacity:1"/></linearGradient><linearGradient id="_Linear6" x1="0" y1="0" x2="1" y2="0" gradientUnits="userSpaceOnUse" gradientTransform="matrix(-46.7315,47.8568,-47.8568,-46.7315,2079.71,380.909)"><stop offset="0" style="stop-color:#ffdc00;stop-opacity:1"/><stop offset="0.8" style="stop-color:#fba313;stop-opacity:1"/><stop offset="1" style="stop-color:#fba313;stop-opacity:1"/></linearGradient><linearGradient id="_Linear7" x1="0" y1="0" x2="1" y2="0" gradientUnits="userSpaceOnUse" gradientTransform="matrix(-44.3969,50.4422,-50.4422,-44.3969,2084.07,603.02)"><stop offset="0" style="stop-color:#ffdc00;stop-opacity:1"/><stop offset="0.8" style="stop-color:#fba313;stop-opacity:1"/><stop offset="1" style="stop-color:#fba313;stop-opacity:1"/></linearGradient><linearGradient id="_Linear8" x1="0" y1="0" x2="1" y2="0" gradientUnits="userSpaceOnUse" gradientTransform="matrix(-109.858,126.942,-126.942,-109.858,1934.74,447.01)"><stop offset="0" style="stop-color:#ffdc00;stop-opacity:1"/><stop offset="0.04" style="stop-color:#ffdc00;stop-opacity:1"/><stop offset="0.8" style="stop-color:#fba313;stop-opacity:1"/><stop offset="1" style="stop-color:#fba313;stop-opacity:1"/></linearGradient><linearGradient id="_Linear9" x1="0" y1="0" x2="1" y2="0" gradientUnits="userSpaceOnUse" gradientTransform="matrix(-85.556,50.7222,-50.7222,-85.556,2159.14,1000.22)"><stop offset="0" style="stop-color:#ffdf3f;stop-opacity:1"/><stop offset="0.04" style="stop-color:#ffdf3f;stop-opacity:1"/><stop offset="0.8" style="stop-color:#fba313;stop-opacity:1"/><stop offset="1" style="stop-color:#fba313;stop-opacity:1"/></linearGradient><linearGradient id="_Linear11" x1="0" y1="0" x2="1" y2="0" gradientUnits="userSpaceOnUse" gradientTransform="matrix(387.951,0,0,387.951,1163.82,625)"><stop offset="0" style="stop-color:#e0234e;stop-opacity:1"/><stop offset="1" style="stop-color:#e161bb;stop-opacity:1"/></linearGradient></defs></svg>