<?xml version="1.0" encoding="UTF-8" standalone="no"?><!DOCTYPE svg PUBLIC "-//W3C//DTD SVG 1.1//EN" "http://www.w3.org/Graphics/SVG/1.1/DTD/svg11.dtd"><svg width="100%" height="100%" viewBox="0 0 3334 2500" version="1.1" xmlns="http://www.w3.org/2000/svg" xmlns:xlink="http://www.w3.org/1999/xlink" xml:space="preserve" xmlns:serif="http://www.serif.com/" style="fill-rule:evenodd;clip-rule:evenodd;stroke-linejoin:round;stroke-miterlimit:2;"><clipPath id="_clip1"><rect id="kafkajs.svg" x="62.5" y="625" width="1000" height="1250"/></clipPath><g clip-path="url(#_clip1)"><g><path d="M818.75,1583.33c163.333,-111.666 243.75,-340 180,-574.166c-61.25,-217.5 -322.5,-392.917 -624.583,-308.75c-125,35.416 -235.834,87.5 -287.084,161.666c48.334,-87.916 187.084,-186.25 341.667,-217.5c337.5,-67.916 570,129.584 620.833,357.917c46.578,221.962 -44.602,451.394 -230.833,580.833Z" style="fill:url(#_Linear2);"/><path d="M818.75,1583.33l-2.917,0c-19.587,12.572 -40.057,23.712 -61.25,33.334c-41.156,17.475 -79.271,41.385 -112.916,70.833c-33.326,20.386 -59.087,51.124 -73.334,87.5c-2.794,7.605 -4.205,15.648 -4.166,23.75c-0.779,7.426 -0.07,14.934 2.083,22.083c1.375,5.084 3.333,10 5.833,14.584c3.084,5.416 7.042,10.375 11.667,14.583l5,3.75c7.083,4.667 15,7.917 23.333,9.583l8.334,0c6.5,0.709 13.083,0.709 19.583,0c-6.667,0 -22.083,3.75 -35.417,5.417l-22.083,2.917c-9.365,1.702 -18.828,2.816 -28.333,3.333c-306.25,29.583 -471.25,-283.333 -265.417,-458.333l6.667,-5.417c30,-23.333 88.75,-58.333 129.583,-90l11.25,-9.167l21.667,-19.166c17.652,-16.754 33.311,-35.489 46.666,-55.834c2.5,-4.166 4.584,-8.333 7.084,-12.083c2.5,-3.75 5,-9.167 7.083,-13.75c4.111,-9.104 7.727,-18.423 10.833,-27.917c5.216,-19.007 7.878,-38.624 7.917,-58.333c0.743,-48.549 -11.025,-96.481 -34.167,-139.167c-1.958,-4.119 -4.331,-8.028 -7.083,-11.666c-58.433,-81.921 -157.127,-125.749 -257.083,-114.167l-24.584,0c-103.333,12.5 -134.583,57.917 -143.75,45c-1.125,-2.372 -1.125,-5.128 0,-7.5c-0.171,-0.965 -0.171,-1.952 0,-2.917c2.893,-10.842 7.844,-21.028 14.584,-30l-0,-2.083c31.395,-42.799 70.204,-79.631 114.583,-108.75c52.531,-35.851 110.497,-63.005 171.667,-80.417c156.245,-45.694 325.317,-13.061 453.333,87.5c6.25,4.584 12.5,9.167 18.333,14.167c64.318,53.62 113.938,122.743 144.167,200.833c4.583,11.667 7.917,22.917 11.25,34.584c63.75,234.166 -16.667,462.5 -180,572.916Z" style="fill:url(#_Linear3);"/><circle cx="270" cy="812.917" r="45.833" style="fill:url(#_Linear4);"/><circle cx="315.833" cy="1457.92" r="45.833" style="fill:url(#_Linear5);"/><circle cx="537.917" cy="955" r="45.833" style="fill:url(#_Linear6);"/><circle cx="547.5" cy="1257.5" r="45.833" style="fill:url(#_Linear7);"/><circle cx="286.667" cy="1111.25" r="114.583" style="fill:url(#_Linear8);"/><path d="M687.5,1857.92c-15.793,4.545 -31.973,7.614 -48.333,9.166l-29.167,0c-8.323,-1.66 -16.246,-4.915 -23.333,-9.583l-5,-3.75c-4.627,-4.222 -8.563,-9.143 -11.667,-14.583c-2.512,-4.615 -4.47,-9.51 -5.833,-14.584c-2.366,-7.97 -2.935,-16.366 -1.667,-24.583c0,-8.083 1.375,-16.125 4.167,-23.75c14.246,-36.376 40.007,-67.114 73.333,-87.5c-37.548,30.801 -51.916,82.092 -35.833,127.917c16.167,29.97 49.698,46.568 83.333,41.25Z" style="fill:url(#_Linear9);"/></g></g><path d="M1746.39,1193.32l-170.044,-0l-0,-170.044c-0,-20.866 -16.922,-37.787 -37.788,-37.787l-37.787,-0c-20.866,-0 -37.787,16.921 -37.787,37.787l-0,170.044l-170.044,-0c-20.866,-0 -37.788,16.921 -37.788,37.787l0,37.788c0,20.866 16.922,37.787 37.788,37.787l170.044,0l-0,170.044c-0,20.866 16.921,37.787 37.787,37.787l37.787,0c20.866,0 37.788,-16.921 37.788,-37.787l-0,-170.044l170.044,0c20.865,0 37.787,-16.921 37.787,-37.787l0,-37.788c0,-20.866 -16.922,-37.787 -37.787,-37.787Z" style="fill:url(#_Linear10);fill-rule:nonzero;"/><g id="layer1"><path id="path818" d="M2726.77,645.737c-8.849,-0 -17.066,1.896 -24.651,4.424c16.118,10.745 24.967,24.967 29.391,41.085c0.317,2.212 0.948,3.792 1.265,6.004c0.317,1.896 0.632,3.793 0.632,5.689c1.264,27.811 -7.269,31.287 -13.274,47.721c-9.165,21.174 -6.637,43.929 4.425,62.259c0.948,2.212 2.212,4.74 3.792,6.953c-12.009,-79.957 54.674,-91.967 66.999,-116.933c0.948,-21.807 -17.066,-36.344 -31.287,-46.457c-13.59,-8.217 -25.915,-10.745 -37.292,-10.745Zm100.499,18.013c-1.265,7.269 -0.317,5.373 -0.632,9.166c-0.316,2.528 -0.316,5.688 -0.631,8.216c-0.632,2.529 -1.265,5.057 -2.213,7.585c-0.631,2.529 -1.58,5.057 -2.528,7.585c-1.265,2.528 -2.212,4.741 -3.476,7.269c-0.948,1.264 -1.58,2.528 -2.529,3.792c-0.631,0.948 -1.264,1.896 -1.896,2.845c-1.58,2.212 -3.16,4.424 -4.74,6.32c-1.897,1.897 -3.477,4.109 -5.689,5.689l-0,0.316c-1.896,1.581 -3.792,3.477 -6.005,5.057c-6.636,5.056 -14.221,8.849 -21.174,13.589c-2.212,1.581 -4.424,2.845 -6.321,4.741c-2.212,1.58 -4.108,3.16 -6.004,5.056c-2.213,1.897 -3.793,3.793 -5.689,6.005c-1.58,1.896 -3.476,4.109 -4.74,6.321c-1.581,2.212 -3.161,4.424 -4.425,6.637c-1.265,2.528 -2.212,4.74 -3.476,7.268c-0.948,2.528 -1.897,4.741 -2.529,7.269c-0.948,2.844 -1.58,5.373 -2.212,7.901c-0.316,1.265 -0.316,2.844 -0.631,4.108c-0.317,1.265 -0.317,2.529 -0.632,3.793c0,2.528 -0.316,5.372 -0.316,7.901c-0,1.896 -0,3.792 0.316,5.688c0,2.529 0.317,5.057 0.948,7.901c0.317,2.528 0.948,5.057 1.58,7.585c0.949,2.528 1.581,5.057 2.529,7.585c0.631,1.58 1.58,3.16 2.212,4.424l-72.688,-28.127c-12.325,-3.476 -24.335,-6.636 -36.66,-9.481c-6.637,-1.58 -13.273,-3.16 -19.91,-4.74c-18.962,-3.793 -38.24,-6.637 -57.518,-8.533c-0.632,-0 -0.949,-0.317 -1.581,-0.317c-18.962,-1.896 -37.608,-2.844 -56.57,-2.844c-13.905,0 -27.811,0.632 -41.4,1.58c-19.279,1.265 -38.557,3.793 -57.835,6.953c-4.74,0.632 -9.481,1.58 -14.221,2.528c-9.797,1.896 -19.278,4.109 -28.443,6.321c-4.741,1.265 -9.481,2.528 -14.222,3.792c-4.74,1.897 -9.165,4.109 -13.59,6.005c-3.476,1.58 -6.952,3.16 -10.429,4.741c-0.631,0.316 -1.264,0.316 -1.58,0.631c-3.16,1.58 -6.004,2.844 -8.849,4.425c-0.948,0.316 -1.58,0.631 -2.212,0.948c-3.476,1.58 -6.953,3.476 -9.797,5.056c-2.212,0.948 -4.424,2.213 -6.321,3.161c-0.948,0.631 -2.212,1.264 -2.844,1.58c-2.844,1.58 -5.689,3.16 -8.217,4.74c-2.844,1.58 -5.373,3.161 -7.585,4.741c-2.212,1.58 -4.424,2.844 -6.321,4.424c-0.316,0.317 -0.631,0.317 -0.948,0.632c-1.896,1.264 -4.108,2.844 -6.004,4.424c-0,0 -0.317,0.317 -0.632,0.632c-1.58,1.265 -3.16,2.528 -4.74,3.792c-0.632,0.317 -1.265,0.948 -1.897,1.265c-1.58,1.265 -3.16,2.844 -4.74,4.108c-0.317,0.632 -0.948,0.949 -1.265,1.265c-1.896,1.896 -3.792,3.476 -5.688,5.373c-0.317,-0 -0.317,0.316 -0.632,0.631c-1.896,1.58 -3.792,3.477 -5.689,5.373c-0.316,0.316 -0.316,0.631 -0.631,0.631c-1.58,1.581 -3.16,3.161 -4.741,5.057c-0.631,0.631 -1.58,1.265 -2.212,1.896c-1.58,1.896 -3.476,3.793 -5.372,5.689c-0.317,0.631 -0.948,0.948 -1.265,1.58c-2.528,2.528 -4.741,5.057 -7.269,7.585c-0.316,0.316 -0.631,0.631 -0.948,0.948c-5.057,5.372 -10.429,10.745 -16.118,15.486c-5.688,5.056 -11.693,9.797 -17.698,13.905c-6.32,4.425 -12.325,8.217 -18.962,12.009c-6.32,3.477 -12.957,6.637 -19.91,9.481c-6.637,2.845 -13.589,5.373 -20.542,7.585c-13.274,2.844 -26.863,8.217 -38.556,9.165c-2.529,0 -5.373,0.632 -7.901,0.948c-2.845,0.632 -5.373,1.265 -7.901,1.897c-2.528,0.948 -5.057,1.896 -7.585,2.844c-2.528,0.948 -5.056,2.212 -7.585,3.476c-2.212,1.58 -4.74,2.845 -6.953,4.425c-2.212,1.58 -4.424,3.476 -6.32,5.372c-2.212,1.581 -4.425,3.793 -6.321,5.689c-1.896,2.212 -3.792,4.108 -5.372,6.321c-1.581,2.528 -3.477,4.74 -4.741,7.268c-1.58,2.213 -3.16,4.741 -4.424,7.269c-1.265,2.845 -2.529,5.373 -3.477,8.217c-0.948,2.528 -1.896,5.373 -2.844,8.217c-0.632,2.528 -1.265,5.057 -1.58,7.585c-0,0.317 -0.317,0.631 -0.317,0.948c-0.631,2.844 -0.631,6.637 -0.948,8.533c-0.316,2.212 -0.632,4.108 -0.632,6.321c0,1.264 0,2.844 0.317,4.108c0.317,2.212 0.632,4.109 1.265,6.005c0.631,1.896 1.264,3.792 2.212,5.688l-0,0.317c0.948,1.896 2.212,3.792 3.476,5.689c1.265,1.896 2.529,3.792 4.109,5.688c1.58,1.58 3.476,3.476 5.372,5.057c1.896,1.896 3.793,3.476 6.005,5.056c7.585,6.637 9.481,8.849 19.278,13.906c1.58,0.948 3.16,1.58 5.057,2.528c0.316,0 0.631,0.316 0.948,0.316c-0,0.632 -0,0.949 0.316,1.581c0.317,2.528 0.948,5.056 1.58,7.585c0.632,2.844 1.581,5.372 2.529,7.584c0.948,1.897 1.58,3.793 2.528,5.689c0.317,0.632 0.632,1.265 0.948,1.58c1.265,2.528 2.528,4.741 3.793,6.953c1.58,2.212 3.16,4.424 4.74,6.637c1.58,1.896 3.476,4.108 5.373,6.004c1.896,1.897 3.792,3.477 6.004,5.373c0,-0 0.317,0.317 0.632,0.317c1.896,1.58 3.792,3.16 5.689,4.424c2.212,1.58 4.424,2.844 6.952,4.109c2.213,1.264 4.741,2.528 7.269,3.476c1.896,0.948 4.109,1.58 6.321,2.212c0.316,0.317 0.631,0.317 1.264,0.632c1.265,0.317 2.845,0.632 4.109,0.948c-0.948,17.066 -1.265,33.184 1.265,38.872c2.844,6.321 16.749,-12.957 30.655,-35.079c-1.896,21.806 -3.161,47.405 -0,54.99c3.476,7.9 22.438,-16.75 38.872,-43.929c224.068,-51.83 428.543,103.027 450.033,321.723c-4.108,-34.132 -46.141,-53.094 -65.419,-48.353c-9.481,23.386 -25.599,53.409 -51.513,72.055c2.212,-20.858 1.264,-42.348 -3.161,-63.207c-6.953,29.076 -20.542,56.255 -39.188,79.641c-30.023,2.212 -60.047,-12.325 -75.849,-34.132c-1.264,-0.948 -1.58,-2.844 -2.528,-4.108c-0.948,-2.212 -1.896,-4.424 -2.528,-6.637c-0.948,-2.212 -1.58,-4.424 -1.896,-6.636c-0.317,-2.213 -0.317,-4.425 -0.317,-6.953l0,-4.741c0.317,-2.212 0.948,-4.424 1.58,-6.637c0.632,-2.212 1.265,-4.424 2.213,-6.636c1.264,-2.212 2.212,-4.425 3.792,-6.637c5.373,-15.17 5.373,-27.495 -4.424,-34.764c-1.897,-1.264 -3.793,-2.212 -6.005,-3.16c-1.265,-0.317 -2.845,-0.948 -4.109,-1.265c-0.948,-0.316 -1.58,-0.631 -2.528,-0.948c-2.212,-0.631 -4.424,-1.265 -6.637,-1.58c-2.212,-0.632 -4.424,-0.948 -6.636,-0.948c-2.213,-0.317 -4.741,-0.632 -6.953,-0.632c-1.58,0 -3.161,0.317 -4.741,0.317c-2.528,-0 -4.74,0.317 -6.952,0.948c-2.213,0.317 -4.425,0.631 -6.637,1.264c-2.212,0.632 -4.425,1.265 -6.637,2.213c-2.212,0.948 -4.108,1.896 -6.321,2.844c-1.896,0.948 -3.792,2.212 -6.004,3.16c-73.636,48.038 -29.707,160.546 20.542,193.097c-18.962,3.477 -38.24,7.585 -43.613,11.694c-0.316,0.316 -0.631,0.631 -0.631,0.631c13.589,8.217 27.811,15.17 42.664,21.175c20.227,6.636 41.717,12.641 51.198,15.169l-0,0.317c26.231,5.372 52.778,7.269 79.641,5.688c140.003,-9.797 254.724,-116.3 275.582,-256.62c0.632,2.845 1.265,5.373 1.896,8.217c0.948,5.689 2.212,11.693 2.844,17.698l0,0.317c0.632,2.844 0.948,5.689 1.265,8.217l-0,1.265c0.317,2.844 0.632,5.688 0.632,8.216c0.316,3.477 0.631,6.953 0.631,10.43l0,5.056c0,1.58 0.317,3.476 0.317,5.057c-0,1.896 -0.317,3.792 -0.317,5.688l0,4.425c0,2.212 -0.317,4.108 -0.317,6.321c0,1.264 0,2.528 -0.316,4.108c-0,2.212 -0.317,4.424 -0.317,6.953c-0.317,0.948 -0.317,1.896 -0.317,2.844c-0.316,2.528 -0.631,4.741 -0.948,7.269c0,0.948 0,1.896 -0.316,2.844c-0.317,3.16 -0.948,6.005 -1.265,9.165l0,0.633c-0.631,2.845 -1.264,6.005 -1.896,8.849l0,0.949c-0.631,2.844 -1.265,5.688 -1.896,8.532c-0,0.317 -0.316,0.949 -0.316,1.265c-0.632,2.844 -1.265,5.689 -2.213,8.533l0,0.948c-0.948,3.16 -1.896,6.005 -2.528,8.849c-0.316,0.316 -0.316,0.632 -0.316,0.632c-0.949,3.16 -1.897,6.32 -2.845,9.481c-1.264,3.16 -2.212,6.004 -3.476,9.165c-1.265,3.16 -2.212,6.32 -3.476,9.165c-1.265,3.16 -2.529,6.004 -3.793,9.165l-0.317,-0c-1.264,2.844 -2.528,6.004 -4.108,8.849c-0.317,0.948 -0.632,1.58 -0.948,2.212c-0.317,0.317 -0.317,0.631 -0.632,0.948c-20.542,41.4 -50.882,77.744 -88.806,106.188c-2.528,1.58 -5.056,3.476 -7.584,5.372c-0.632,0.632 -1.581,0.948 -2.213,1.58c-2.212,1.58 -4.424,3.161 -6.952,4.741l0.948,1.896l0.316,0c4.424,-0.631 8.849,-1.265 13.274,-1.896l0.316,-0c8.217,-1.265 16.434,-2.844 24.651,-4.425c2.212,-0.317 4.74,-0.948 6.952,-1.58c1.581,-0.317 2.845,-0.631 4.425,-0.948c2.212,-0.317 4.424,-0.948 6.637,-1.265c1.896,-0.631 3.792,-0.948 5.688,-1.58c31.604,-7.585 62.259,-18.014 91.65,-30.339c-50.249,68.579 -117.565,123.885 -196.257,160.229c36.344,-2.528 72.688,-8.533 107.768,-18.646c127.362,-37.608 234.497,-123.253 298.652,-238.606c-12.957,73.004 -42.032,142.532 -85.013,203.211c30.655,-20.227 58.782,-43.613 84.381,-70.16c70.792,-73.952 117.249,-167.814 133.051,-268.63c10.745,49.934 13.905,101.448 9.165,152.329c228.177,-318.247 18.962,-648.187 -68.58,-735.096c-0.317,-0.632 -0.631,-0.948 -0.631,-1.58c-0.317,0.316 -0.317,0.316 -0.317,0.631c-0,-0.316 -0,-0.316 -0.317,-0.631c0,3.792 -0.316,7.584 -0.631,11.377c-0.948,7.269 -1.896,14.221 -3.161,21.174c-1.58,6.953 -3.476,13.906 -5.372,20.858c-2.212,6.637 -4.741,13.59 -7.585,20.227c-2.844,6.32 -6.005,12.957 -9.481,19.278c-3.477,6.005 -7.269,12.325 -11.377,18.014c-4.109,6.004 -8.533,11.693 -12.958,17.065c-4.74,5.689 -9.797,10.746 -14.853,15.802c-3.161,2.845 -6.005,5.373 -9.166,7.901c-2.528,2.212 -4.74,4.109 -7.268,6.321c-5.689,4.424 -11.377,8.533 -17.698,12.325c-6.005,3.793 -12.325,7.585 -18.646,10.745c-6.637,3.161 -13.274,6.005 -19.91,8.849c-6.637,2.529 -13.59,4.741 -20.543,6.637c-6.952,1.896 -14.221,3.476 -21.174,4.741c-7.269,1.264 -14.537,1.896 -21.49,2.528c-5.057,0.316 -10.113,0.632 -15.17,0.632c-7.269,-0 -14.537,-0.632 -21.49,-1.265c-7.269,-0.632 -14.538,-1.58 -21.491,-3.161c-7.268,-1.264 -14.221,-3.16 -21.174,-5.372l-0.316,-0c6.952,-0.632 13.905,-1.265 20.858,-2.528c7.269,-1.265 14.221,-2.845 21.174,-4.741c6.953,-1.896 13.906,-4.108 20.542,-6.637c6.953,-2.528 13.59,-5.688 19.911,-8.849c6.636,-3.16 12.641,-6.636 18.962,-10.429c6.004,-4.108 12.009,-8.217 17.698,-12.641c5.688,-4.425 11.061,-9.165 16.118,-14.222c5.372,-4.74 10.113,-10.113 14.853,-15.485c4.74,-5.689 9.165,-11.378 13.274,-17.066c0.631,-0.948 1.264,-2.212 1.896,-3.161c3.16,-5.056 6.32,-10.113 9.165,-15.169c3.476,-6.321 6.636,-12.642 9.481,-19.278c2.844,-6.637 5.372,-13.274 7.585,-20.227c2.212,-6.636 3.792,-13.589 5.372,-20.542c1.265,-7.269 2.528,-14.221 3.161,-21.174c0.631,-7.269 1.264,-14.538 1.264,-21.49c0,-5.057 -0.317,-10.114 -0.631,-15.17c-0.632,-7.269 -1.581,-14.222 -2.529,-21.174c-1.264,-7.269 -2.844,-14.222 -4.74,-21.175c-2.212,-6.636 -4.425,-13.589 -6.953,-20.226c-2.528,-6.637 -5.689,-13.273 -8.849,-19.594c-3.476,-6.321 -6.953,-12.641 -10.745,-18.646c-4.109,-6.005 -8.217,-11.693 -12.642,-17.382c-4.74,-5.373 -9.481,-10.745 -14.537,-16.118c-2.528,-2.528 -5.373,-5.372 -8.217,-7.901c-14.222,-11.061 -29.075,-21.49 -43.929,-30.971c-2.212,-1.265 -4.108,-2.212 -6.32,-3.16c-10.43,-6.637 -20.227,-10.114 -30.024,-13.274l-0,-0.002Z" style="fill:#e0234e;"/></g><defs><linearGradient id="_Linear2" x1="0" y1="0" x2="1" y2="0" gradientUnits="userSpaceOnUse" gradientTransform="matrix(-597.882,429.583,-429.583,-597.882,970.365,833.332)"><stop offset="0" style="stop-color:#ffdc00;stop-opacity:1"/><stop offset="0.8" style="stop-color:#fba313;stop-opacity:1"/><stop offset="1" style="stop-color:#fba313;stop-opacity:1"/></linearGradient><linearGradient id="_Linear3" x1="0" y1="0" x2="1" y2="0" gradientUnits="userSpaceOnUse" gradientTransform="matrix(-897.914,531.238,-531.238,-897.914,992.496,970.856)"><stop offset="0" style="stop-color:#f05eb7;stop-opacity:1"/><stop offset="0.04" style="stop-color:#f05eb7;stop-opacity:1"/><stop offset="0.8" style="stop-color:#a170cc;stop-opacity:1"/><stop offset="1" style="stop-color:#a170cc;stop-opacity:1"/></linearGradient><linearGradient id="_Linear4" x1="0" y1="0" x2="1" y2="0" gradientUnits="userSpaceOnUse" gradientTransform="matrix(-65.7048,63.6176,-63.6176,-65.7048,305.316,779.358)"><stop offset="0" style="stop-color:#ffdc00;stop-opacity:1"/><stop offset="0.8" style="stop-color:#fba313;stop-opacity:1"/><stop offset="1" style="stop-color:#fba313;stop-opacity:1"/></linearGradient><linearGradient id="_Linear5" x1="0" y1="0" x2="1" y2="0" gradientUnits="userSpaceOnUse" gradientTransform="matrix(-47.7932,60.3286,-60.3286,-47.7932,340.861,1426.47)"><stop offset="0" style="stop-color:#ffdc00;stop-opacity:1"/><stop offset="0.8" style="stop-color:#fba313;stop-opacity:1"/><stop offset="1" style="stop-color:#fba313;stop-opacity:1"/></linearGradient><linearGradient id="_Linear6" x1="0" y1="0" x2="1" y2="0" gradientUnits="userSpaceOnUse" gradientTransform="matrix(-63.7248,65.2593,-65.2593,-63.7248,574.604,917.149)"><stop offset="0" style="stop-color:#ffdc00;stop-opacity:1"/><stop offset="0.8" style="stop-color:#fba313;stop-opacity:1"/><stop offset="1" style="stop-color:#fba313;stop-opacity:1"/></linearGradient><linearGradient id="_Linear7" x1="0" y1="0" x2="1" y2="0" gradientUnits="userSpaceOnUse" gradientTransform="matrix(-60.5413,68.7848,-68.7848,-60.5413,580.552,1220.03)"><stop offset="0" style="stop-color:#ffdc00;stop-opacity:1"/><stop offset="0.8" style="stop-color:#fba313;stop-opacity:1"/><stop offset="1" style="stop-color:#fba313;stop-opacity:1"/></linearGradient><linearGradient id="_Linear8" x1="0" y1="0" x2="1" y2="0" gradientUnits="userSpaceOnUse" gradientTransform="matrix(-149.806,173.103,-173.103,-149.806,376.924,1007.29)"><stop offset="0" style="stop-color:#ffdc00;stop-opacity:1"/><stop offset="0.04" style="stop-color:#ffdc00;stop-opacity:1"/><stop offset="0.8" style="stop-color:#fba313;stop-opacity:1"/><stop offset="1" style="stop-color:#fba313;stop-opacity:1"/></linearGradient><linearGradient id="_Linear9" x1="0" y1="0" x2="1" y2="0" gradientUnits="userSpaceOnUse" gradientTransform="matrix(-116.667,69.1666,-69.1666,-116.667,682.917,1761.67)"><stop offset="0" style="stop-color:#ffdf3f;stop-opacity:1"/><stop offset="0.04" style="stop-color:#ffdf3f;stop-opacity:1"/><stop offset="0.8" style="stop-color:#fba313;stop-opacity:1"/><stop offset="1" style="stop-color:#fba313;stop-opacity:1"/></linearGradient><linearGradient id="_Linear10" x1="0" y1="0" x2="1" y2="0" gradientUnits="userSpaceOnUse" gradientTransform="matrix(529.025,0,0,529.025,1255.16,1250)"><stop offset="0" style="stop-color:#e161bb;stop-opacity:1"/><stop offset="1" style="stop-color:#e0234e;stop-opacity:1"/></linearGradient></defs></svg>